<svg xmlns="http://www.w3.org/2000/svg" version="1.1" xmlns:xlink="http://www.w3.org/1999/xlink" xmlns:svgjs="http://svgjs.dev/svgjs" width="2000" height="2000" viewBox="0 0 2000 2000"><g transform="matrix(1,0,0,1,-0.28443113772425477,-0.28443113772459583)"><svg viewBox="0 0 334 334" data-background-color="#ffffff" preserveAspectRatio="xMidYMid meet" height="2000" width="2000" xmlns="http://www.w3.org/2000/svg" xmlns:xlink="http://www.w3.org/1999/xlink"><g id="tight-bounds" transform="matrix(1,0,0,1,0.04749999999998522,0.04750000000001364)"><svg viewBox="0 0 333.90454557049503 333.90454557049503" height="333.90454557049503" width="333.90454557049503"><g><svg></svg></g><g><svg viewBox="0 0 333.90454557049503 333.90454557049503" height="333.90454557049503" width="333.90454557049503"><g><path d="M0 166.952c0-92.205 74.747-166.952 166.952-166.952 92.205 0 166.952 74.747 166.953 166.952 0 92.205-74.747 166.952-166.953 166.953-92.205 0-166.952-74.747-166.952-166.953zM166.952 316.63c82.665 0 149.677-67.013 149.678-149.678 0-82.665-67.013-149.677-149.678-149.677-82.665 0-149.677 67.013-149.677 149.677 0 82.665 67.013 149.677 149.677 149.678z" data-fill-palette-color="tertiary" fill="#131313" stroke="transparent"></path><ellipse rx="160.27418187383762" ry="160.27418187383762" cx="166.95227278524752" cy="166.95227278524752" fill="#131313" stroke="transparent" stroke-width="0" fill-opacity="1" data-fill-palette-color="tertiary"></ellipse></g><g transform="matrix(1,0,0,1,99.33642101213809,71.17305217166896)"><svg viewBox="0 0 135.23170354621885 191.55844122715712" height="191.55844122715712" width="135.23170354621885"><g><svg viewBox="0 0 135.23170354621885 191.55844122715712" height="191.55844122715712" width="135.23170354621885"><g><svg viewBox="0 0 135.23170354621885 191.55844122715712" height="191.55844122715712" width="135.23170354621885"><g><svg viewBox="0 0 135.23170354621885 191.55844122715712" height="191.55844122715712" width="135.23170354621885"><g id="textblocktransform"><svg viewBox="0 0 135.23170354621885 191.55844122715712" height="191.55844122715712" width="135.23170354621885" id="textblock"><g><svg viewBox="0 0 135.23170354621885 191.55844122715712" height="191.55844122715712" width="135.23170354621885"><g transform="matrix(1,0,0,1,0,0)"><svg width="135.23170354621885" viewBox="3.95 -40 28.45 40.3" height="191.55844122715712" data-palette-color="#ffffff"><path d="M9.9-21.2L25.15-39.1Q25.9-40 26.85-40L26.85-40Q27.9-40 29-39.05L29-39.05Q29.55-38.5 29.93-37.95 30.3-37.4 30.3-36.85L30.3-36.85Q30.3-35.95 29.65-35.3L29.65-35.3 22.95-27.5 9.9-12.15 9.9-2.1Q9.9 0.3 6.9 0.3L6.9 0.3Q3.95 0.3 3.95-2.1L3.95-2.1 3.95-37.55Q3.95-39.95 6.9-39.95L6.9-39.95Q9.9-39.95 9.9-37.55L9.9-37.55 9.9-21.2ZM27.55-1.5L18.05-15.35Q17.55-16.05 17.55-17.05L17.55-17.05Q17.55-18.55 18.8-19.45L18.8-19.45 18.75-19.45Q19.75-20.15 20.75-20.15L20.75-20.15Q21.7-20.15 22.35-19.05L22.35-19.05 32-4.95 31.95-5Q32.4-4.3 32.4-3.5L32.4-3.5Q32.4-2.2 31.1-1.2L31.1-1.2 31.15-1.2Q30.6-0.85 30.1-0.65 29.6-0.45 29.2-0.45L29.2-0.45Q28.8-0.45 28.38-0.75 27.95-1.05 27.55-1.5L27.55-1.5Z" opacity="1" transform="matrix(1,0,0,1,0,0)" fill="#ffffff" class="wordmark-text-0" data-fill-palette-color="quaternary" id="text-0"></path></svg></g></svg></g></svg></g></svg></g><g></g></svg></g></svg></g></svg></g></svg></g><defs></defs></svg><rect width="333.90454557049503" height="333.90454557049503" fill="none" stroke="none" visibility="hidden"></rect></g></svg></g></svg>